<svg xmlns="http://www.w3.org/2000/svg" viewBox="0 8.699999809265137 618.0999755859375 620.5999755859375"><path d="M136.5 183.6H149c1.7 0 3-1.4 3-3v-12.5c0-1.7-1.4-3-3-3h-12.5c-1.7 0-3 1.4-3 3v12.5c-.1 1.7 1.3 3 3 3zM112.9 280.3v14.8c0 2 1.6 3.6 3.6 3.6h14.8c2 0 3.6-1.6 3.6-3.6v-14.8c0-2-1.6-3.6-3.6-3.6h-14.8c-2 0-3.6 1.6-3.6 3.6zM36.1 305.8v-24.3c0-3.2-2.6-5.9-5.9-5.9H5.9c-3.2 0-5.9 2.6-5.9 5.9v24.3c0 3.2 2.6 5.9 5.9 5.9h24.3c3.2 0 5.9-2.7 5.9-5.9zM42.6 260.9h58.5c7.8 0 14.2-6.4 14.2-14.2v-58.5c0-7.8-6.4-14.2-14.2-14.2H42.6c-7.8 0-14.2 6.4-14.2 14.2v58.5c0 7.8 6.4 14.2 14.2 14.2zM154.2 148.9h65.5c8.7 0 15.9-7.1 15.9-15.9V67.6c0-8.7-7.1-15.9-15.9-15.9h-65.5c-8.7 0-15.9 7.1-15.9 15.9v65.5c.1 8.7 7.2 15.8 15.9 15.8zM478.5 160h83.7c4.9 0 9.5.9 13.8 2.6-13.5-23.1-29.9-44.3-48.7-63.1C471.2 43.4 393.6 8.7 307.9 8.7V123.8c53.5 0 102 21.5 137.2 56.4 6.4-12 19-20.2 33.4-20.2zM261.7 118.2c-2.3 0-4.1 1.8-4.1 4.1v16.9c0 2.3 1.8 4.1 4.1 4.1h16.9c2.3 0 4.1-1.8 4.1-4.1v-16.9c0-2.3-1.8-4.1-4.1-4.1h-16.9zM77.5 153h26.1c3.5 0 6.3-2.8 6.3-6.3v-26.1c0-3.5-2.8-6.3-6.3-6.3H77.5c-3.5 0-6.3 2.8-6.3 6.3v26.1c0 3.4 2.9 6.3 6.3 6.3zM282.1 530.8h-13.2c-1.8 0-3.2 1.4-3.2 3.2v13.2c0 1.8 1.4 3.2 3.2 3.2h13.2c1.8 0 3.2-1.4 3.2-3.2V534c0-1.8-1.5-3.2-3.2-3.2zM599.8 281.4c0 20.7-16.9 37.7-37.7 37.7H503c0 107.8-87.4 195.1-195.2 195.1V629.3c85.7 0 163.3-34.7 219.4-90.9 56.1-56.1 90.9-133.7 90.9-219.4 0-37-6.5-72.5-18.4-105.4v67.8zM112.1 473.8H78.8c-4.4 0-8.1 3.6-8.1 8.1v33.3c0 4.4 3.6 8.1 8.1 8.1h33.3c4.4 0 8.1-3.6 8.1-8.1v-33.3c-.1-4.5-3.7-8.1-8.1-8.1zM282 460.2v-24.3c0-3.2-2.6-5.9-5.9-5.9h-24.3c-3.2 0-5.9 2.6-5.9 5.9v24.3c0 3.2 2.6 5.9 5.9 5.9h24.3c3.3 0 5.9-2.7 5.9-5.9zM230 493.4h-65.4c-8.7 0-15.9 7.1-15.9 15.9v65.4c0 8.7 7.1 15.9 15.9 15.9H230c8.7 0 15.9-7.1 15.9-15.9v-65.4c-.1-8.7-7.2-15.9-15.9-15.9zM253.2 390v-48.6c0-6.5-5.3-11.8-11.8-11.8h-48.6c-6.5 0-11.8 5.3-11.8 11.8V390c0 6.5 5.3 11.8 11.8 11.8h48.6c6.5 0 11.8-5.3 11.8-11.8z" fill="#25bcbd"></path><linearGradient id="a23ca9a45-1be7-40b5-9436-d6ce29d47b8b" gradientUnits="userSpaceOnUse" x1="20.209" y1="314.098" x2="582.468" y2="314.098"><stop offset="0" stop-color="#25bcbd"></stop><stop offset="1" stop-color="#c2d72e"></stop></linearGradient><path d="M179.9 300.5c2.1.7 4.3 1.1 6.6 1.1h83.7c2.3 0 4.6-.4 6.6-1.1l37.4 37.4c-1.3 2.7-2 5.7-2 8.8v83.7c0 11.2 9.1 20.3 20.3 20.3h83.7c11.2 0 20.3-9.1 20.3-20.3v-83.7c0-3.2-.7-6.2-2-8.8l37.4-37.4c2.1.7 4.3 1.1 6.6 1.1h83.7c11.2 0 20.3-9.1 20.3-20.3v-83.7c0-11.2-9.1-20.3-20.3-20.3h-83.7c-11.2 0-20.3 9.1-20.3 20.3v83.7c0 2.8.6 5.5 1.6 7.9l-38.1 38.1c-1.8-.5-3.6-.8-5.6-.8h-83.7c-1.9 0-3.8.3-5.6.8l-38.1-38.1c1-2.4 1.6-5.1 1.6-7.9v-83.7c0-11.2-9.1-20.3-20.3-20.3h-83.7c-11.2 0-20.3 9.1-20.3 20.3v83.7c0 2.8.6 5.5 1.6 7.9l-38.1 38.1c-1.8-.5-3.6-.8-5.6-.8H40.5c-11.2 0-20.3 9.1-20.3 20.3v83.7c0 11.2 9.1 20.3 20.3 20.3h83.7c11.2 0 20.3-9.1 20.3-20.3v-83.7c0-3.2-.7-6.2-2-8.8l37.4-37.5z" fill="url(#a23ca9a45-1be7-40b5-9436-d6ce29d47b8b)"></path><path d="M189.8 434.5c-1.6 0-2.9 1.3-2.9 2.9v12.1c0 1.6 1.3 2.9 2.9 2.9H202c1.6 0 2.9-1.3 2.9-2.9v-12.1c0-1.6-1.3-2.9-2.9-2.9h-12.2z" fill="#25bcbd"></path></svg>